<svg xmlns="http://www.w3.org/2000/svg" width="119.968" height="30" viewBox="0 0 119.968 30"><defs><style>.a{fill:#0e1133;}.b{fill:#2b70fa;}</style></defs><g transform="translate(-375 -26)"><path class="a" d="M448.613,53.7V34.2h5.059v2.474h.112a4.349,4.349,0,0,1,.812-1.325,3.947,3.947,0,0,1,1.33-.969,4.384,4.384,0,0,1,1.846-.365,5.186,5.186,0,0,1,2.673.749,5.424,5.424,0,0,1,2.068,2.354,9.39,9.39,0,0,1,.8,4.173,9.538,9.538,0,0,1-.762,4.072,5.519,5.519,0,0,1-2.031,2.41,5.154,5.154,0,0,1-2.784.793,4.545,4.545,0,0,1-1.777-.328,3.935,3.935,0,0,1-1.33-.9,4.019,4.019,0,0,1-.844-1.288h-.074V53.7Zm6.034-15.368a2.535,2.535,0,0,0-.776,1.154,5.312,5.312,0,0,0-.273,1.805,5.248,5.248,0,0,0,.273,1.787,2.608,2.608,0,0,0,.776,1.164,1.979,1.979,0,0,0,2.4.008A2.5,2.5,0,0,0,457.8,43.1a6.31,6.31,0,0,0,0-3.61,2.509,2.509,0,0,0-.757-1.154,1.833,1.833,0,0,0-1.2-.4A1.869,1.869,0,0,0,454.647,38.334ZM431.613,53.7V34.2h5.06v2.474h.111a4.349,4.349,0,0,1,.812-1.325,3.947,3.947,0,0,1,1.33-.969,4.384,4.384,0,0,1,1.846-.365,5.186,5.186,0,0,1,2.673.749,5.423,5.423,0,0,1,2.068,2.354,9.389,9.389,0,0,1,.8,4.173,9.537,9.537,0,0,1-.762,4.072,5.519,5.519,0,0,1-2.031,2.41,5.154,5.154,0,0,1-2.784.793,4.545,4.545,0,0,1-1.777-.328,3.943,3.943,0,0,1-1.33-.9,4.019,4.019,0,0,1-.844-1.288h-.074V53.7Zm6.034-15.368a2.535,2.535,0,0,0-.776,1.154,5.312,5.312,0,0,0-.273,1.805,5.248,5.248,0,0,0,.273,1.787,2.608,2.608,0,0,0,.776,1.164,1.979,1.979,0,0,0,2.4.008A2.5,2.5,0,0,0,440.8,43.1a6.309,6.309,0,0,0,0-3.61,2.509,2.509,0,0,0-.757-1.154,1.833,1.833,0,0,0-1.2-.4A1.87,1.87,0,0,0,437.647,38.334Zm52.9,9.593a2.449,2.449,0,0,1-.752-1.833,2.4,2.4,0,0,1,.752-1.8,2.577,2.577,0,0,1,3.629,0,2.438,2.438,0,0,1,.789,1.8,2.488,2.488,0,0,1-.374,1.307,2.776,2.776,0,0,1-.947.932,2.424,2.424,0,0,1-1.264.347A2.517,2.517,0,0,1,490.549,47.927ZM476.5,47.769a6.006,6.006,0,0,1-2.52-2.511,8.175,8.175,0,0,1-.882-3.929,7.969,7.969,0,0,1,.886-3.841,6.333,6.333,0,0,1,2.5-2.558,7.619,7.619,0,0,1,3.813-.914,8.079,8.079,0,0,1,2.908.5,6.129,6.129,0,0,1,2.226,1.445,6.438,6.438,0,0,1,1.422,2.3,8.713,8.713,0,0,1,.5,3.037v1.182h-9.232V42.7a2.546,2.546,0,0,0,.286,1.219,2.067,2.067,0,0,0,.822.84,2.569,2.569,0,0,0,1.292.305,2.993,2.993,0,0,0,.965-.148,2.112,2.112,0,0,0,.752-.429,1.679,1.679,0,0,0,.462-.679h4.653a5.263,5.263,0,0,1-1.135,2.562,5.846,5.846,0,0,1-2.369,1.68,9.134,9.134,0,0,1-3.439.595A8.206,8.206,0,0,1,476.5,47.769Zm6.163-8.1a2,2,0,0,0-.31-1.076,2.1,2.1,0,0,0-.8-.73,2.423,2.423,0,0,0-1.14-.263,2.467,2.467,0,0,0-1.136.263,2.154,2.154,0,0,0-.826.725,2,2,0,0,0-.328,1.08Zm-64.492,8.49a3.573,3.573,0,0,1-1.63-1.362,4.209,4.209,0,0,1-.591-2.327,4.554,4.554,0,0,1,.4-1.99,3.586,3.586,0,0,1,1.108-1.352,5.209,5.209,0,0,1,1.657-.8,9.972,9.972,0,0,1,2.045-.36,19.076,19.076,0,0,0,1.916-.226,2.534,2.534,0,0,0,1.048-.379.775.775,0,0,0,.324-.651V38.67a.974.974,0,0,0-.425-.85,1.875,1.875,0,0,0-1.09-.3,2.03,2.03,0,0,0-1.186.319,1.353,1.353,0,0,0-.55.974H416.5a4.832,4.832,0,0,1,.826-2.387,5.119,5.119,0,0,1,2.146-1.754A8.324,8.324,0,0,1,423,34.016a9.7,9.7,0,0,1,2.733.356,6.461,6.461,0,0,1,2.059.988,4.422,4.422,0,0,1,1.3,1.477,3.862,3.862,0,0,1,.447,1.832v9.713h-4.764V46.39h-.111a4.136,4.136,0,0,1-1.03,1.283,3.861,3.861,0,0,1-1.376.71,6.085,6.085,0,0,1-1.694.222A6,6,0,0,1,418.169,48.157Zm5.881-5.821q-.225.074-.48.139t-.535.12q-.282.055-.586.1a2.932,2.932,0,0,0-.965.3,1.436,1.436,0,0,0-.554.508,1.278,1.278,0,0,0-.18.67,1.066,1.066,0,0,0,.416.9,1.713,1.713,0,0,0,1.061.313,2.544,2.544,0,0,0,1.094-.239,2.109,2.109,0,0,0,.835-.692,1.841,1.841,0,0,0,.324-1.1V42.179Q424.276,42.262,424.049,42.336Zm41.563,6.047V34.2h5.1V48.383Zm.776-16.342a2.2,2.2,0,0,1,0-3.287,2.648,2.648,0,0,1,3.55,0,2.208,2.208,0,0,1,0,3.287,2.5,2.5,0,0,1-1.768.684A2.528,2.528,0,0,1,466.388,32.041Z"></path><g transform="translate(254.327 -34.501)"><path class="a" d="M127.336,90.5H144.01A9.627,9.627,0,0,0,127.336,90.5Z"></path><path class="b" d="M147.514,60.5H123.832a3.159,3.159,0,0,0-3.159,3.159V87.342a3.15,3.15,0,0,0,.247,1.226l14.753-25.553,6.647,11.513c-4.677-1.447-10.371,1.229-12.8,7.966,5.022-5.232,14.97-4.313,17.485.155l3.417,5.919a3.146,3.146,0,0,0,.247-1.226V63.66A3.159,3.159,0,0,0,147.514,60.5Z"></path></g></g></svg>